<svg xmlns="http://www.w3.org/2000/svg" width="100%" height="100%" viewBox="0 0 1200 300"><defs><linearGradient id="bg-grad" x1="0%" x2="100%" y1="0%" y2="100%"><stop offset="0%" stop-color="#0f172a"/><stop offset="50%" stop-color="#1e1b4b"/><stop offset="100%" stop-color="#311042"/></linearGradient><linearGradient id="text-grad" x1="0%" x2="100%" y1="0%" y2="0%"><stop offset="0%" stop-color="#38bdf8"/><stop offset="50%" stop-color="#818cf8"/><stop offset="100%" stop-color="#c084fc"/></linearGradient><linearGradient id="bar-grad" x1="0%" x2="0%" y1="100%" y2="0%"><stop offset="0%" stop-color="#6366f1" stop-opacity=".2"/><stop offset="100%" stop-color="#a855f7" stop-opacity=".8"/></linearGradient><filter id="glow" width="140%" height="140%" x="-20%" y="-20%"><feGaussianBlur result="blur" stdDeviation="8"/><feComposite in="SourceGraphic" in2="blur" operator="over"/></filter></defs><rect width="1200" height="300" fill="url(#bg-grad)" rx="16"/><g class="wave-bars" opacity=".35"><rect width="8" height="60" x="50" y="160" fill="url(#bar-grad)" rx="4"><animate attributeName="height" dur="2s" repeatCount="indefinite" values="60;120;40;60"/><animate attributeName="y" dur="2s" repeatCount="indefinite" values="160;100;180;160"/></rect><rect width="8" height="100" x="70" y="140" fill="url(#bar-grad)" rx="4"><animate attributeName="height" dur="2.3s" repeatCount="indefinite" values="100;40;140;100"/><animate attributeName="y" dur="2.3s" repeatCount="indefinite" values="140;200;100;140"/></rect><rect width="8" height="140" x="90" y="120" fill="url(#bar-grad)" rx="4"><animate attributeName="height" dur="1.8s" repeatCount="indefinite" values="140;80;180;140"/><animate attributeName="y" dur="1.8s" repeatCount="indefinite" values="120;180;80;120"/></rect><rect width="8" height="180" x="110" y="100" fill="url(#bar-grad)" rx="4"><animate attributeName="height" dur="2.5s" repeatCount="indefinite" values="180;60;120;180"/><animate attributeName="y" dur="2.5s" repeatCount="indefinite" values="100;200;140;100"/></rect><rect width="8" height="80" x="130" y="150" fill="url(#bar-grad)" rx="4"><animate attributeName="height" dur="2.1s" repeatCount="indefinite" values="80;160;60;80"/><animate attributeName="y" dur="2.1s" repeatCount="indefinite" values="150;70;170;150"/></rect><rect width="8" height="80" x="1050" y="150" fill="url(#bar-grad)" rx="4"><animate attributeName="height" dur="1.9s" repeatCount="indefinite" values="80;150;50;80"/><animate attributeName="y" dur="1.9s" repeatCount="indefinite" values="150;80;180;150"/></rect><rect width="8" height="160" x="1070" y="110" fill="url(#bar-grad)" rx="4"><animate attributeName="height" dur="2.4s" repeatCount="indefinite" values="160;70;170;160"/><animate attributeName="y" dur="2.4s" repeatCount="indefinite" values="110;190;90;110"/></rect><rect width="8" height="120" x="1090" y="130" fill="url(#bar-grad)" rx="4"><animate attributeName="height" dur="1.7s" repeatCount="indefinite" values="120;180;60;120"/><animate attributeName="y" dur="1.7s" repeatCount="indefinite" values="130;70;190;130"/></rect><rect width="8" height="60" x="1110" y="160" fill="url(#bar-grad)" rx="4"><animate attributeName="height" dur="2.2s" repeatCount="indefinite" values="60;110;40;60"/><animate attributeName="y" dur="2.2s" repeatCount="indefinite" values="160;110;180;160"/></rect></g><path fill="none" stroke="#38bdf8" stroke-width="3" d="M 150,220 Q 300,140 450,220 T 750,220 T 1050,220" opacity=".4"><animate attributeName="d" dur="5s" repeatCount="indefinite" values="M 150,220 Q 300,140 450,220 T 750,220 T 1050,220; M 150,220 Q 300,280 450,220 T 750,220 T 1050,220; M 150,220 Q 300,140 450,220 T 750,220 T 1050,220"/></path><g text-anchor="middle"><g transform="translate(600, 75) scale(1.2)"><path fill="#38bdf8" d="M-12,-10 A12,12 0 0,1 12,-10 V10 A12,12 0 0,1 -12,10 Z" opacity=".9"/><path fill="none" stroke="#e0e7ff" stroke-linecap="round" stroke-width="4" d="M-18,5 A18,18 0 0,0 18,5"/><line x1="0" x2="0" y1="23" y2="33" stroke="#e0e7ff" stroke-linecap="round" stroke-width="4"/><line x1="-10" x2="10" y1="33" y2="33" stroke="#e0e7ff" stroke-linecap="round" stroke-width="4"/></g><text x="600" y="165" fill="url(#text-grad)" filter="url(#glow)" font-family="-apple-system, BlinkMacSystemFont, 'Segoe UI', Roboto, Helvetica, Arial, sans-serif" font-size="44" font-weight="800" letter-spacing="1.5">Awesome Audio Recording Utility 🎙️</text><text x="600" y="210" fill="#94a3b8" font-family="-apple-system, BlinkMacSystemFont, 'Segoe UI', Roboto, Helvetica, Arial, sans-serif" font-size="19" font-weight="500" letter-spacing=".5">Curated Commercial Software, DAWs &amp; Open-Source Audio Tools</text><g transform="translate(600, 245)"><rect width="140" height="26" x="-240" y="0" fill="#1e293b" stroke="#38bdf8" stroke-width="1" rx="13"/><text x="-170" y="17" fill="#38bdf8" font-family="sans-serif" font-size="12" font-weight="600">🎙️ Recording</text><rect width="120" height="26" x="-80" y="0" fill="#1e293b" stroke="#818cf8" stroke-width="1" rx="13"/><text x="-20" y="17" fill="#818cf8" font-family="sans-serif" font-size="12" font-weight="600">🎛️ DAWs</text><rect width="180" height="26" x="60" y="0" fill="#1e293b" stroke="#c084fc" stroke-width="1" rx="13"/><text x="150" y="17" fill="#c084fc" font-family="sans-serif" font-size="12" font-weight="600">⭐ Open Source &amp; SaaS</text></g></g></svg>